STARTFONT 2.1
COMMENT /*
COMMENT  * Spleen 12x24
COMMENT  * Copyright (c) 2018, Frederic Cambus
COMMENT  * https://www.cambus.net/
COMMENT  *
COMMENT  * Created:      2018-08-15
COMMENT  * Last Updated: 2018-08-15
COMMENT  *
COMMENT  * Spleen is released under the BSD 2-Clause license.
COMMENT  * See LICENSE file for details.
COMMENT  */
FONT "-misc-spleen-medium-r-normal--24-240-72-72-C-120-iso10646-1"
SIZE 17 75 75
FONTBOUNDINGBOX 12 24 0 -6
STARTPROPERTIES 16
FAMILY_NAME "Spleen"
FOUNDRY "misc"
SLANT "R"
SETWIDTH_NAME "Normal"
PIXEL_SIZE 24
POINT_SIZE 240
RESOLUTION_X 72
RESOLUTION_Y 72
SPACING "C"
AVERAGE_WIDTH 120
CHARSET_REGISTRY "ISO10646"
CHARSET_ENCODING "1"
FONT_ASCENT 18
FONT_DESCENT 6
COPYRIGHT "Copyright (c) 2018, Frederic Cambus"
DEFAULT_CHAR 0
ENDPROPERTIES
CHARS 96
STARTCHAR 0x0020
ENCODING 32
SWIDTH 677 0
DWIDTH 12 0
BBX 12 24 0 -6
BITMAP
0000
0000
0000
0000
0000
0000
0000
0000
0000
0000
0000
0000
0000
0000
0000
0000
0000
0000
0000
0000
0000
0000
0000
0000
ENDCHAR
STARTCHAR 0x0021
ENCODING 33
SWIDTH 677 0
DWIDTH 12 0
BBX 12 24 0 -6
BITMAP
0000
0000
0000
0600
0600
0600
0600
0600
0600
0600
0600
0600
0600
0600
0000
0000
0600
0600
0000
0000
0000
0000
0000
0000
ENDCHAR
STARTCHAR 0x0022
ENCODING 34
SWIDTH 677 0
DWIDTH 12 0
BBX 12 24 0 -6
BITMAP
0000
30C0
30C0
30C0
30C0
30C0
30C0
30C0
0000
0000
0000
0000
0000
0000
0000
0000
0000
0000
0000
0000
0000
0000
0000
0000
ENDCHAR
STARTCHAR 0x0023
ENCODING 35
SWIDTH 677 0
DWIDTH 12 0
BBX 12 24 0 -6
BITMAP
0000
0000
0000
6180
6180
6180
FFC0
6180
6180
6180
6180
6180
6180
6180
FFC0
6180
6180
6180
0000
0000
0000
0000
0000
0000
ENDCHAR
STARTCHAR 0x004C
ENCODING 36
SWIDTH 677 0
DWIDTH 12 0
BBX 12 24 0 -6
BITMAP
0000
0C00
0C00
3FC0
6C00
CC00
CC00
CC00
CC00
6C00
3F00
0D80
0CC0
0CC0
0CC0
0CC0
0D80
FF00
0C00
0C00
0000
0000
0000
0000
ENDCHAR
STARTCHAR char47
ENCODING 37
SWIDTH 677 0
DWIDTH 12 0
BBX 12 24 0 -6
BITMAP
0000
0000
0000
0000
0060
0060
00C0
30C0
3180
0180
0300
0300
0600
0600
0C00
0C60
1860
1800
3000
3000
0000
0000
0000
0000
ENDCHAR
STARTCHAR 0x0053
ENCODING 38
SWIDTH 677 0
DWIDTH 12 0
BBX 12 24 0 -6
BITMAP
0000
0000
0000
1E00
3300
6180
6180
6180
6180
3300
1E00
6600
C340
C1C0
C180
C180
63C0
3E60
0000
0000
0000
0000
0000
0000
ENDCHAR
STARTCHAR 0x0027
ENCODING 39
SWIDTH 677 0
DWIDTH 12 0
BBX 12 24 0 -6
BITMAP
0000
0600
0600
0600
0600
0600
0600
0600
0000
0000
0000
0000
0000
0000
0000
0000
0000
0000
0000
0000
0000
0000
0000
0000
ENDCHAR
STARTCHAR 0x005B
ENCODING 40
SWIDTH 677 0
DWIDTH 12 0
BBX 12 24 0 -6
BITMAP
0000
0000
0700
0C00
1800
3000
6000
6000
C000
C000
C000
C000
C000
C000
C000
C000
6000
6000
3000
1800
0C00
0700
0000
0000
ENDCHAR
STARTCHAR 0x005B
ENCODING 41
SWIDTH 677 0
DWIDTH 12 0
BBX 12 24 0 -6
BITMAP
0000
0000
E000
3000
1800
0C00
0600
0600
0300
0300
0300
0300
0300
0300
0300
0300
0600
0600
0C00
1800
3000
E000
0000
0000
ENDCHAR
STARTCHAR 0x002A
ENCODING 42
SWIDTH 677 0
DWIDTH 12 0
BBX 12 24 0 -6
BITMAP
0000
0000
0000
0000
0000
0000
0000
0000
30C0
1980
0F00
0600
7FE0
0600
0F00
1980
30C0
0000
0000
0000
0000
0000
0000
0000
ENDCHAR
STARTCHAR 0x002B
ENCODING 43
SWIDTH 677 0
DWIDTH 12 0
BBX 12 24 0 -6
BITMAP
0000
0000
0000
0000
0000
0000
0000
0000
0000
0600
0600
0600
3FC0
0600
0600
0600
0000
0000
0000
0000
0000
0000
0000
0000
ENDCHAR
STARTCHAR 0x002C
ENCODING 44
SWIDTH 677 0
DWIDTH 12 0
BBX 12 24 0 -6
BITMAP
0000
0000
0000
0000
0000
0000
0000
0000
0000
0000
0000
0000
0000
0000
0000
0600
0600
0E00
1C00
0800
0000
0000
0000
0000
ENDCHAR
STARTCHAR 0x002B
ENCODING 45
SWIDTH 677 0
DWIDTH 12 0
BBX 12 24 0 -6
BITMAP
0000
0000
0000
0000
0000
0000
0000
0000
0000
0000
0000
0000
7FE0
0000
0000
0000
0000
0000
0000
0000
0000
0000
0000
0000
ENDCHAR
STARTCHAR 0x002C
ENCODING 46
SWIDTH 677 0
DWIDTH 12 0
BBX 12 24 0 -6
BITMAP
0000
0000
0000
0000
0000
0000
0000
0000
0000
0000
0000
0000
0000
0000
0000
0000
0600
0600
0000
0000
0000
0000
0000
0000
ENDCHAR
STARTCHAR char47
ENCODING 47
SWIDTH 677 0
DWIDTH 12 0
BBX 12 24 0 -6
BITMAP
0000
0000
0060
0060
00C0
00C0
0180
0180
0300
0300
0600
0600
0C00
0C00
1800
1800
3000
3000
6000
6000
C000
C000
0000
0000
ENDCHAR
STARTCHAR 0x004C
ENCODING 48
SWIDTH 677 0
DWIDTH 12 0
BBX 12 24 0 -6
BITMAP
0000
0000
0000
3F00
6180
C0C0
C0C0
C0C0
C1C0
C3C0
C6C0
CCC0
D8C0
F0C0
E0C0
C0C0
6180
3F00
0000
0000
0000
0000
0000
0000
ENDCHAR
STARTCHAR 0x004C
ENCODING 49
SWIDTH 677 0
DWIDTH 12 0
BBX 12 24 0 -6
BITMAP
0000
0000
0000
0E00
1E00
3600
2600
0600
0600
0600
0600
0600
0600
0600
0600
0600
0600
3FC0
0000
0000
0000
0000
0000
0000
ENDCHAR
STARTCHAR 0x004C
ENCODING 50
SWIDTH 677 0
DWIDTH 12 0
BBX 12 24 0 -6
BITMAP
0000
0000
0000
3F00
6180
C0C0
00C0
00C0
0180
0300
0600
0C00
1800
3000
6000
C000
C0C0
FFC0
0000
0000
0000
0000
0000
0000
ENDCHAR
STARTCHAR 0x004C
ENCODING 51
SWIDTH 677 0
DWIDTH 12 0
BBX 12 24 0 -6
BITMAP
0000
0000
0000
3F00
6180
C0C0
00C0
00C0
00C0
0180
1F00
0180
00C0
00C0
00C0
C0C0
6180
3F00
0000
0000
0000
0000
0000
0000
ENDCHAR
STARTCHAR 0x004C
ENCODING 52
SWIDTH 677 0
DWIDTH 12 0
BBX 12 24 0 -6
BITMAP
0000
0000
0000
C000
C000
C000
C300
C300
C300
C300
C300
C300
C300
FFC0
0300
0300
0300
0300
0000
0000
0000
0000
0000
0000
ENDCHAR
STARTCHAR 0x004C
ENCODING 53
SWIDTH 677 0
DWIDTH 12 0
BBX 12 24 0 -6
BITMAP
0000
0000
0000
FFC0
C0C0
C000
C000
C000
C000
FF00
0180
00C0
00C0
00C0
00C0
C0C0
6180
3F00
0000
0000
0000
0000
0000
0000
ENDCHAR
STARTCHAR 0x004C
ENCODING 54
SWIDTH 677 0
DWIDTH 12 0
BBX 12 24 0 -6
BITMAP
0000
0000
0000
3F80
60C0
C000
C000
C000
C000
C000
FF00
C180
C0C0
C0C0
C0C0
C0C0
6180
3F00
0000
0000
0000
0000
0000
0000
ENDCHAR
STARTCHAR 0x004C
ENCODING 55
SWIDTH 677 0
DWIDTH 12 0
BBX 12 24 0 -6
BITMAP
0000
0000
0000
FFC0
C0C0
00C0
00C0
00C0
0180
0300
0600
0C00
1800
1800
1800
1800
1800
1800
0000
0000
0000
0000
0000
0000
ENDCHAR
STARTCHAR 0x004C
ENCODING 56
SWIDTH 677 0
DWIDTH 12 0
BBX 12 24 0 -6
BITMAP
0000
0000
0000
3F00
6180
C0C0
C0C0
C0C0
6180
3F00
6180
C0C0
C0C0
C0C0
C0C0
C0C0
6180
3F00
0000
0000
0000
0000
0000
0000
ENDCHAR
STARTCHAR 0x004C
ENCODING 57
SWIDTH 677 0
DWIDTH 12 0
BBX 12 24 0 -6
BITMAP
0000
0000
0000
3F00
6180
C0C0
C0C0
C0C0
C0C0
60C0
3FC0
00C0
00C0
00C0
00C0
00C0
C180
7F00
0000
0000
0000
0000
0000
0000
ENDCHAR
STARTCHAR 0x002C
ENCODING 58
SWIDTH 677 0
DWIDTH 12 0
BBX 12 24 0 -6
BITMAP
0000
0000
0000
0000
0000
0000
0000
0000
0000
0600
0600
0000
0000
0000
0000
0000
0600
0600
0000
0000
0000
0000
0000
0000
ENDCHAR
STARTCHAR 0x002C
ENCODING 59
SWIDTH 677 0
DWIDTH 12 0
BBX 12 24 0 -6
BITMAP
0000
0000
0000
0000
0000
0000
0000
0000
0000
0600
0600
0000
0000
0000
0000
0600
0600
0600
0C00
1800
0000
0000
0000
0000
ENDCHAR
STARTCHAR 0x003E
ENCODING 60
SWIDTH 677 0
DWIDTH 12 0
BBX 12 24 0 -6
BITMAP
0000
0000
00C0
0180
0300
0600
0C00
1800
3000
6000
C000
6000
3000
1800
0C00
0600
0300
0180
00C0
0000
0000
0000
0000
0000
ENDCHAR
STARTCHAR 0x002B
ENCODING 61
SWIDTH 677 0
DWIDTH 12 0
BBX 12 24 0 -6
BITMAP
0000
0000
0000
0000
0000
0000
0000
0000
0000
7FE0
0000
0000
0000
0000
7FE0
0000
0000
0000
0000
0000
0000
0000
0000
0000
ENDCHAR
STARTCHAR 0x003E
ENCODING 62
SWIDTH 677 0
DWIDTH 12 0
BBX 12 24 0 -6
BITMAP
0000
0000
C000
6000
3000
1800
0C00
0600
0300
0180
00C0
0180
0300
0600
0C00
1800
3000
6000
C000
0000
0000
0000
0000
0000
ENDCHAR
STARTCHAR 0x0021
ENCODING 63
SWIDTH 677 0
DWIDTH 12 0
BBX 12 24 0 -6
BITMAP
0000
0000
0000
3F00
6180
60C0
00C0
00C0
0180
0300
0600
0C00
0C00
0C00
0000
0000
0C00
0C00
0000
0000
0000
0000
0000
0000
ENDCHAR
STARTCHAR 0x004C
ENCODING 64
SWIDTH 677 0
DWIDTH 12 0
BBX 12 24 0 -6
BITMAP
0000
0000
0000
0000
0000
0000
3F00
6180
C0C0
C0C0
CEC0
CEC0
CEC0
CFC0
CFC0
C000
6000
3F80
0000
0000
0000
0000
0000
0000
ENDCHAR
STARTCHAR 0x004C
ENCODING 65
SWIDTH 677 0
DWIDTH 12 0
BBX 12 24 0 -6
BITMAP
0000
0000
0000
3F00
6180
C0C0
C0C0
C0C0
C0C0
C0C0
FFC0
C0C0
C0C0
C0C0
C0C0
C0C0
C0C0
C0C0
0000
0000
0000
0000
0000
0000
ENDCHAR
STARTCHAR 0x004C
ENCODING 66
SWIDTH 677 0
DWIDTH 12 0
BBX 12 24 0 -6
BITMAP
0000
0000
0000
FF80
C1C0
C0C0
C0C0
C0C0
C0C0
C1C0
FF80
C1C0
C0C0
C0C0
C0C0
C0C0
C1C0
FF80
0000
0000
0000
0000
0000
0000
ENDCHAR
STARTCHAR 0x004C
ENCODING 67
SWIDTH 677 0
DWIDTH 12 0
BBX 12 24 0 -6
BITMAP
0000
0000
0000
3FC0
60C0
C000
C000
C000
C000
C000
C000
C000
C000
C000
C000
C000
6000
3FC0
0000
0000
0000
0000
0000
0000
ENDCHAR
STARTCHAR 0x004C
ENCODING 68
SWIDTH 677 0
DWIDTH 12 0
BBX 12 24 0 -6
BITMAP
0000
0000
0000
FF80
C1C0
C0C0
C0C0
C0C0
C0C0
C0C0
C0C0
C0C0
C0C0
C0C0
C0C0
C0C0
C1C0
FF80
0000
0000
0000
0000
0000
0000
ENDCHAR
STARTCHAR 0x004C
ENCODING 69
SWIDTH 677 0
DWIDTH 12 0
BBX 12 24 0 -6
BITMAP
0000
0000
0000
3FC0
6000
C000
C000
C000
C000
C000
FF00
C000
C000
C000
C000
C000
6000
3FC0
0000
0000
0000
0000
0000
0000
ENDCHAR
STARTCHAR 0x004C
ENCODING 70
SWIDTH 677 0
DWIDTH 12 0
BBX 12 24 0 -6
BITMAP
0000
0000
0000
3FC0
60C0
C000
C000
C000
C000
C000
FF00
C000
C000
C000
C000
C000
C000
C000
0000
0000
0000
0000
0000
0000
ENDCHAR
STARTCHAR 0x004C
ENCODING 71
SWIDTH 677 0
DWIDTH 12 0
BBX 12 24 0 -6
BITMAP
0000
0000
0000
3FC0
60C0
C000
C000
C000
C000
C7C0
C0C0
C0C0
C0C0
C0C0
C0C0
C0C0
60C0
3FC0
0000
0000
0000
0000
0000
0000
ENDCHAR
STARTCHAR 0x004C
ENCODING 72
SWIDTH 677 0
DWIDTH 12 0
BBX 12 24 0 -6
BITMAP
0000
0000
0000
C0C0
C0C0
C0C0
C0C0
C0C0
C0C0
C0C0
FFC0
C0C0
C0C0
C0C0
C0C0
C0C0
C0C0
C0C0
0000
0000
0000
0000
0000
0000
ENDCHAR
STARTCHAR 0x004C
ENCODING 73
SWIDTH 677 0
DWIDTH 12 0
BBX 12 24 0 -6
BITMAP
0000
0000
0000
7F80
0C00
0C00
0C00
0C00
0C00
0C00
0C00
0C00
0C00
0C00
0C00
0C00
0C00
7F80
0000
0000
0000
0000
0000
0000
ENDCHAR
STARTCHAR 0x004C
ENCODING 74
SWIDTH 677 0
DWIDTH 12 0
BBX 12 24 0 -6
BITMAP
0000
0000
0000
7F80
0C00
0C00
0C00
0C00
0C00
0C00
0C00
0C00
0C00
0C00
0C00
0C00
1C00
F800
0000
0000
0000
0000
0000
0000
ENDCHAR
STARTCHAR 0x004C
ENCODING 75
SWIDTH 677 0
DWIDTH 12 0
BBX 12 24 0 -6
BITMAP
0000
0000
0000
C0C0
C0C0
C0C0
C0C0
C0C0
C0C0
C180
FF80
C0C0
C0C0
C0C0
C0C0
C0C0
C0C0
C0C0
0000
0000
0000
0000
0000
0000
ENDCHAR
STARTCHAR 0x004C
ENCODING 76
SWIDTH 677 0
DWIDTH 12 0
BBX 12 24 0 -6
BITMAP
0000
0000
0000
C000
C000
C000
C000
C000
C000
C000
C000
C000
C000
C000
C000
C000
6000
3F80
0000
0000
0000
0000
0000
0000
ENDCHAR
STARTCHAR 0x004C
ENCODING 77
SWIDTH 677 0
DWIDTH 12 0
BBX 12 24 0 -6
BITMAP
0000
0000
0000
C0C0
E1C0
F3C0
DEC0
CCC0
C0C0
C0C0
C0C0
C0C0
C0C0
C0C0
C0C0
C0C0
C0C0
C0C0
0000
0000
0000
0000
0000
0000
ENDCHAR
STARTCHAR 0x004C
ENCODING 78
SWIDTH 677 0
DWIDTH 12 0
BBX 12 24 0 -6
BITMAP
0000
0000
0000
C0C0
C0C0
E0C0
E0C0
D0C0
D0C0
C8C0
C8C0
C4C0
C4C0
C2C0
C2C0
C1C0
C1C0
C0C0
0000
0000
0000
0000
0000
0000
ENDCHAR
STARTCHAR 0x004C
ENCODING 79
SWIDTH 677 0
DWIDTH 12 0
BBX 12 24 0 -6
BITMAP
0000
0000
0000
3F00
6180
C0C0
C0C0
C0C0
C0C0
C0C0
C0C0
C0C0
C0C0
C0C0
C0C0
C0C0
6180
3F00
0000
0000
0000
0000
0000
0000
ENDCHAR
STARTCHAR 0x004C
ENCODING 80
SWIDTH 677 0
DWIDTH 12 0
BBX 12 24 0 -6
BITMAP
0000
0000
0000
FF00
C180
C0C0
C0C0
C0C0
C0C0
C180
FF00
C000
C000
C000
C000
C000
C000
C000
0000
0000
0000
0000
0000
0000
ENDCHAR
STARTCHAR 0x004C
ENCODING 81
SWIDTH 677 0
DWIDTH 12 0
BBX 12 24 0 -6
BITMAP
0000
0000
0000
3FC0
60C0
C0C0
C0C0
C0C0
C0C0
C0C0
C0C0
C0C0
C0C0
CCC0
CCC0
CCC0
CD80
FF00
0C00
0C00
0C00
0000
0000
0000
ENDCHAR
STARTCHAR 0x004C
ENCODING 82
SWIDTH 677 0
DWIDTH 12 0
BBX 12 24 0 -6
BITMAP
0000
0000
0000
FF80
C1C0
C0C0
C0C0
C0C0
C0C0
C180
FF80
C0C0
C0C0
C0C0
C0C0
C0C0
C0C0
C0C0
0000
0000
0000
0000
0000
0000
ENDCHAR
STARTCHAR 0x004C
ENCODING 83
SWIDTH 677 0
DWIDTH 12 0
BBX 12 24 0 -6
BITMAP
0000
0000
0000
3FC0
6000
C000
C000
C000
C000
6000
3F00
0180
00C0
00C0
00C0
00C0
0180
FF00
0000
0000
0000
0000
0000
0000
ENDCHAR
STARTCHAR 0x004C
ENCODING 84
SWIDTH 677 0
DWIDTH 12 0
BBX 12 24 0 -6
BITMAP
0000
0000
0000
FFE0
0C00
0C00
0C00
0C00
0C00
0C00
0C00
0C00
0C00
0C00
0C00
0C00
0C00
0C00
0000
0000
0000
0000
0000
0000
ENDCHAR
STARTCHAR 0x004C
ENCODING 85
SWIDTH 677 0
DWIDTH 12 0
BBX 12 24 0 -6
BITMAP
0000
0000
0000
C0C0
C0C0
C0C0
C0C0
C0C0
C0C0
C0C0
C0C0
C0C0
C0C0
C0C0
C0C0
C0C0
60C0
3FC0
0000
0000
0000
0000
0000
0000
ENDCHAR
STARTCHAR 0x004C
ENCODING 86
SWIDTH 677 0
DWIDTH 12 0
BBX 12 24 0 -6
BITMAP
0000
0000
0000
C0C0
C0C0
C0C0
C0C0
C0C0
C0C0
C0C0
C0C0
C0C0
C0C0
61C0
6180
3300
1F00
0C00
0000
0000
0000
0000
0000
0000
ENDCHAR
STARTCHAR 0x004C
ENCODING 87
SWIDTH 677 0
DWIDTH 12 0
BBX 12 24 0 -6
BITMAP
0000
0000
0000
C0C0
C0C0
C0C0
C0C0
C0C0
C0C0
C0C0
C0C0
C0C0
C0C0
CCC0
DEC0
F3C0
E1C0
C0C0
0000
0000
0000
0000
0000
0000
ENDCHAR
STARTCHAR 0x004C
ENCODING 88
SWIDTH 677 0
DWIDTH 12 0
BBX 12 24 0 -6
BITMAP
0000
0000
0000
C0C0
C0C0
C0C0
C0C0
C0C0
6180
3F00
3F00
6180
C0C0
C0C0
C0C0
C0C0
C0C0
C0C0
0000
0000
0000
0000
0000
0000
ENDCHAR
STARTCHAR 0x004C
ENCODING 89
SWIDTH 677 0
DWIDTH 12 0
BBX 12 24 0 -6
BITMAP
0000
0000
0000
C0C0
C0C0
C0C0
C0C0
C0C0
C0C0
60C0
3FC0
00C0
00C0
00C0
00C0
00C0
01C0
FF80
0000
0000
0000
0000
0000
0000
ENDCHAR
STARTCHAR 0x004C
ENCODING 90
SWIDTH 677 0
DWIDTH 12 0
BBX 12 24 0 -6
BITMAP
0000
0000
0000
FFC0
00C0
00C0
00C0
00C0
0180
0300
0600
0C00
1800
3000
6000
C000
C000
FFC0
0000
0000
0000
0000
0000
0000
ENDCHAR
STARTCHAR 0x005B
ENCODING 91
SWIDTH 677 0
DWIDTH 12 0
BBX 12 24 0 -6
BITMAP
0000
7F80
6000
6000
6000
6000
6000
6000
6000
6000
6000
6000
6000
6000
6000
6000
6000
6000
6000
6000
6000
6000
7F80
0000
ENDCHAR
STARTCHAR char47
ENCODING 92
SWIDTH 677 0
DWIDTH 12 0
BBX 12 24 0 -6
BITMAP
0000
0000
C000
C000
6000
6000
3000
3000
1800
1800
0C00
0C00
0600
0600
0300
0300
0180
0180
00C0
00C0
0060
0060
0000
0000
ENDCHAR
STARTCHAR 0x005B
ENCODING 93
SWIDTH 677 0
DWIDTH 12 0
BBX 12 24 0 -6
BITMAP
0000
7F80
0180
0180
0180
0180
0180
0180
0180
0180
0180
0180
0180
0180
0180
0180
0180
0180
0180
0180
0180
0180
7F80
0000
ENDCHAR
STARTCHAR 0x005E
ENCODING 94
SWIDTH 677 0
DWIDTH 12 0
BBX 12 24 0 -6
BITMAP
0000
0400
0E00
1B00
3180
60C0
C060
0000
0000
0000
0000
0000
0000
0000
0000
0000
0000
0000
0000
0000
0000
0000
0000
0000
ENDCHAR
STARTCHAR 0x005F
ENCODING 95
SWIDTH 677 0
DWIDTH 12 0
BBX 12 24 0 -6
BITMAP
0000
0000
0000
0000
0000
0000
0000
0000
0000
0000
0000
0000
0000
0000
0000
0000
0000
0000
0000
0000
0000
0000
FFE0
0000
ENDCHAR
STARTCHAR 0x0060
ENCODING 96
SWIDTH 677 0
DWIDTH 12 0
BBX 12 24 0 -6
BITMAP
0000
0000
1800
0C00
0600
0300
0000
0000
0000
0000
0000
0000
0000
0000
0000
0000
0000
0000
0000
0000
0000
0000
0000
0000
ENDCHAR
STARTCHAR 0x004C
ENCODING 97
SWIDTH 677 0
DWIDTH 12 0
BBX 12 24 0 -6
BITMAP
0000
0000
0000
0000
0000
0000
0000
7F00
0180
00C0
00C0
3FC0
60C0
C0C0
C0C0
C0C0
60C0
3FC0
0000
0000
0000
0000
0000
0000
ENDCHAR
STARTCHAR 0x004C
ENCODING 98
SWIDTH 677 0
DWIDTH 12 0
BBX 12 24 0 -6
BITMAP
0000
0000
0000
C000
C000
C000
C000
FF00
C180
C0C0
C0C0
C0C0
C0C0
C0C0
C0C0
C0C0
C180
FF00
0000
0000
0000
0000
0000
0000
ENDCHAR
STARTCHAR 0x004C
ENCODING 99
SWIDTH 677 0
DWIDTH 12 0
BBX 12 24 0 -6
BITMAP
0000
0000
0000
0000
0000
0000
0000
3FC0
60C0
C000
C000
C000
C000
C000
C000
C000
6000
3FC0
0000
0000
0000
0000
0000
0000
ENDCHAR
STARTCHAR 0x004C
ENCODING 100
SWIDTH 677 0
DWIDTH 12 0
BBX 12 24 0 -6
BITMAP
0000
0000
0000
00C0
00C0
00C0
00C0
3FC0
60C0
C0C0
C0C0
C0C0
C0C0
C0C0
C0C0
C0C0
60C0
3FC0
0000
0000
0000
0000
0000
0000
ENDCHAR
STARTCHAR 0x004C
ENCODING 101
SWIDTH 677 0
DWIDTH 12 0
BBX 12 24 0 -6
BITMAP
0000
0000
0000
0000
0000
0000
0000
3FC0
60C0
C0C0
C0C0
C0C0
FFC0
C000
C000
C000
6000
3FC0
0000
0000
0000
0000
0000
0000
ENDCHAR
STARTCHAR 0x004C
ENCODING 102
SWIDTH 677 0
DWIDTH 12 0
BBX 12 24 0 -6
BITMAP
0000
0000
0000
0F80
1C00
1800
1800
1800
1800
7F00
1800
1800
1800
1800
1800
1800
1800
1800
0000
0000
0000
0000
0000
0000
ENDCHAR
STARTCHAR 0x004C
ENCODING 103
SWIDTH 677 0
DWIDTH 12 0
BBX 12 24 0 -6
BITMAP
0000
0000
0000
0000
0000
0000
0000
3FC0
60C0
C0C0
C0C0
C0C0
C0C0
C0C0
C0C0
C0C0
60C0
3F80
0180
00C0
00C0
0180
7F00
0000
ENDCHAR
STARTCHAR 0x004C
ENCODING 104
SWIDTH 677 0
DWIDTH 12 0
BBX 12 24 0 -6
BITMAP
0000
0000
0000
C000
C000
C000
C000
FF00
C180
C0C0
C0C0
C0C0
C0C0
C0C0
C0C0
C0C0
C0C0
C0C0
0000
0000
0000
0000
0000
0000
ENDCHAR
STARTCHAR 0x004C
ENCODING 105
SWIDTH 677 0
DWIDTH 12 0
BBX 12 24 0 -6
BITMAP
0000
0000
0000
0C00
0C00
0000
0000
0C00
0C00
0C00
0C00
0C00
0C00
0C00
0C00
0C00
0C00
0C00
0000
0000
0000
0000
0000
0000
ENDCHAR
STARTCHAR 0x004C
ENCODING 106
SWIDTH 677 0
DWIDTH 12 0
BBX 12 24 0 -6
BITMAP
0000
0000
0000
0C00
0C00
0000
0000
0C00
0C00
0C00
0C00
0C00
0C00
0C00
0C00
0C00
0C00
0C00
0C00
0C00
0C00
1800
F000
0000
ENDCHAR
STARTCHAR 0x004C
ENCODING 107
SWIDTH 677 0
DWIDTH 12 0
BBX 12 24 0 -6
BITMAP
0000
0000
0000
C000
C000
C000
C000
C300
C300
C600
CC00
F800
D800
CC00
C600
C300
C180
C180
0000
0000
0000
0000
0000
0000
ENDCHAR
STARTCHAR 0x004C
ENCODING 108
SWIDTH 677 0
DWIDTH 12 0
BBX 12 24 0 -6
BITMAP
0000
0000
0000
1800
1800
1800
1800
1800
1800
1800
1800
1800
1800
1800
1800
1800
1C00
0F80
0000
0000
0000
0000
0000
0000
ENDCHAR
STARTCHAR 0x004C
ENCODING 109
SWIDTH 677 0
DWIDTH 12 0
BBX 12 24 0 -6
BITMAP
0000
0000
0000
0000
0000
0000
0000
33C0
6CC0
CCC0
CCC0
CCC0
CCC0
CCC0
CCC0
C0C0
C0C0
C0C0
0000
0000
0000
0000
0000
0000
ENDCHAR
STARTCHAR 0x004C
ENCODING 110
SWIDTH 677 0
DWIDTH 12 0
BBX 12 24 0 -6
BITMAP
0000
0000
0000
0000
0000
0000
0000
3FC0
60C0
C0C0
C0C0
C0C0
C0C0
C0C0
C0C0
C0C0
C0C0
C0C0
0000
0000
0000
0000
0000
0000
ENDCHAR
STARTCHAR 0x004C
ENCODING 111
SWIDTH 677 0
DWIDTH 12 0
BBX 12 24 0 -6
BITMAP
0000
0000
0000
0000
0000
0000
0000
3F00
6180
C0C0
C0C0
C0C0
C0C0
C0C0
C0C0
C0C0
6180
3F00
0000
0000
0000
0000
0000
0000
ENDCHAR
STARTCHAR 0x004C
ENCODING 112
SWIDTH 677 0
DWIDTH 12 0
BBX 12 24 0 -6
BITMAP
0000
0000
0000
0000
0000
0000
0000
FF00
C180
C0C0
C0C0
C0C0
C0C0
C0C0
C0C0
C0C0
C180
FF00
C000
C000
C000
C000
C000
0000
ENDCHAR
STARTCHAR 0x004C
ENCODING 113
SWIDTH 677 0
DWIDTH 12 0
BBX 12 24 0 -6
BITMAP
0000
0000
0000
0000
0000
0000
0000
3FC0
60C0
C0C0
C0C0
C0C0
C0C0
C0C0
C0C0
C0C0
60C0
3FC0
00C0
00C0
00C0
00C0
00C0
0000
ENDCHAR
STARTCHAR 0x004C
ENCODING 114
SWIDTH 677 0
DWIDTH 12 0
BBX 12 24 0 -6
BITMAP
0000
0000
0000
0000
0000
0000
0000
3FC0
60C0
C000
C000
C000
C000
C000
C000
C000
C000
C000
0000
0000
0000
0000
0000
0000
ENDCHAR
STARTCHAR 0x004C
ENCODING 115
SWIDTH 677 0
DWIDTH 12 0
BBX 12 24 0 -6
BITMAP
0000
0000
0000
0000
0000
0000
0000
7FC0
C000
C000
C000
C000
7F80
00C0
00C0
00C0
00C0
FF80
0000
0000
0000
0000
0000
0000
ENDCHAR
STARTCHAR 0x004C
ENCODING 116
SWIDTH 677 0
DWIDTH 12 0
BBX 12 24 0 -6
BITMAP
0000
0000
0000
1800
1800
1800
1800
7F00
1800
1800
1800
1800
1800
1800
1800
1800
1C00
0F80
0000
0000
0000
0000
0000
0000
ENDCHAR
STARTCHAR 0x004C
ENCODING 117
SWIDTH 677 0
DWIDTH 12 0
BBX 12 24 0 -6
BITMAP
0000
0000
0000
0000
0000
0000
0000
C0C0
C0C0
C0C0
C0C0
C0C0
C0C0
C0C0
C0C0
C0C0
60C0
3FC0
0000
0000
0000
0000
0000
0000
ENDCHAR
STARTCHAR 0x004C
ENCODING 118
SWIDTH 677 0
DWIDTH 12 0
BBX 12 24 0 -6
BITMAP
0000
0000
0000
0000
0000
0000
0000
C0C0
C0C0
C0C0
C0C0
C0C0
C0C0
61C0
6180
3300
1E00
0C00
0000
0000
0000
0000
0000
0000
ENDCHAR
STARTCHAR 0x004C
ENCODING 119
SWIDTH 677 0
DWIDTH 12 0
BBX 12 24 0 -6
BITMAP
0000
0000
0000
0000
0000
0000
0000
C0C0
C0C0
C0C0
CCC0
CCC0
CCC0
CCC0
CCC0
CCC0
6CC0
33C0
0000
0000
0000
0000
0000
0000
ENDCHAR
STARTCHAR 0x004C
ENCODING 120
SWIDTH 677 0
DWIDTH 12 0
BBX 12 24 0 -6
BITMAP
0000
0000
0000
0000
0000
0000
0000
C0C0
C0C0
6180
3300
1E00
1E00
3300
6180
6180
C0C0
C0C0
0000
0000
0000
0000
0000
0000
ENDCHAR
STARTCHAR 0x004C
ENCODING 121
SWIDTH 677 0
DWIDTH 12 0
BBX 12 24 0 -6
BITMAP
0000
0000
0000
0000
0000
0000
0000
C0C0
C0C0
C0C0
C0C0
C0C0
C0C0
C0C0
C0C0
C0C0
60C0
3FC0
00C0
00C0
00C0
0180
FF00
0000
ENDCHAR
STARTCHAR 0x004C
ENCODING 122
SWIDTH 677 0
DWIDTH 12 0
BBX 12 24 0 -6
BITMAP
0000
0000
0000
0000
0000
0000
0000
FFC0
00C0
00C0
0180
0300
0600
0C00
1800
3000
6000
FFC0
0000
0000
0000
0000
0000
0000
ENDCHAR
STARTCHAR 0x005B
ENCODING 123
SWIDTH 677 0
DWIDTH 12 0
BBX 12 24 0 -6
BITMAP
0000
0780
0C00
1800
1800
1800
1800
1800
1800
1800
1800
E000
E000
1800
1800
1800
1800
1800
1800
1800
1800
0C00
0780
0000
ENDCHAR
STARTCHAR 0x007C
ENCODING 124
SWIDTH 677 0
DWIDTH 12 0
BBX 12 24 0 -6
BITMAP
0000
0000
0000
0C00
0C00
0C00
0C00
0C00
0C00
0C00
0C00
0C00
0C00
0C00
0C00
0C00
0C00
0C00
0C00
0C00
0C00
0000
0000
0000
ENDCHAR
STARTCHAR 0x005B
ENCODING 125
SWIDTH 677 0
DWIDTH 12 0
BBX 12 24 0 -6
BITMAP
0000
F000
1800
0C00
0C00
0C00
0C00
0C00
0C00
0C00
0C00
0380
0380
0C00
0C00
0C00
0C00
0C00
0C00
0C00
0C00
1800
F000
0000
ENDCHAR
STARTCHAR 0x007E
ENCODING 126
SWIDTH 677 0
DWIDTH 12 0
BBX 12 24 0 -6
BITMAP
0000
0000
3860
6C60
C6C0
0380
0000
0000
0000
0000
0000
0000
0000
0000
0000
0000
0000
0000
0000
0000
0000
0000
0000
0000
ENDCHAR
STARTCHAR 0x007F
ENCODING 127
SWIDTH 677 0
DWIDTH 12 0
BBX 12 24 0 -6
BITMAP
0000
0000
0000
0000
0000
0000
0000
0000
0000
0000
0000
0000
0000
0000
0000
0000
0000
0000
0000
0000
0000
0000
0000
0000
ENDCHAR
ENDFONT
